# xmcd
#
# Track frame offsets:
#	150
#	16370
#	32372
#	49402
#	71744
#	90849
#	110209
#	130445
#	152102
#	175286
#	193106
#	212320
#	230847
#
# Disc length: 3281 seconds
#
# Revision: 0
# Processed by: cddbd v1.5.1PL0 Copyright (c) Steve Scherf et al.
# Submitted via: EasyCDDAExtractor 8.2.1.1
#
DISCID=b40ccf0d
DTITLE=Gretchen Peters - Trio
DYEAR=2004
DGENRE=Country
TTITLE0=Museum
TTITLE1=Circus Girl
TTITLE2=Like Water Into Wine
TTITLE3=Souvenirs
TTITLE4=Main Street
TTITLE5=You Don't Even Know Who I Am
TTITLE6=The Secret Of Life
TTITLE7=Revival
TTITLE8=Over Africa
TTITLE9=This Used To Be My Town
TTITLE10=American Tune
TTITLE11=On A Bus To St. Cloud
TTITLE12=When You Are Old
EXTD=
EXTT0=
EXTT1=
EXTT2=
EXTT3=
EXTT4=
EXTT5=
EXTT6=
EXTT7=
EXTT8=
EXTT9=
EXTT10=
EXTT11=
EXTT12=
PLAYORDER=
